<svg xmlns="http://www.w3.org/2000/svg" xmlns:xlink="http://www.w3.org/1999/xlink" width="366" height="104.394" viewBox="0 0 366 104.394">
    <defs>
        <filter id="Rectangle_1493" x="92" y="0.394" width="90" height="89" filterUnits="userSpaceOnUse">
            <feOffset dy="3" input="SourceAlpha"/>
            <feGaussianBlur stdDeviation="3" result="blur"/>
            <feFlood flood-opacity="0.161"/>
            <feComposite operator="in" in2="blur"/>
            <feComposite in="SourceGraphic"/>
        </filter>
        <filter id="Rectangle_1495" x="0" y="0.394" width="90" height="89" filterUnits="userSpaceOnUse">
            <feOffset dy="3" input="SourceAlpha"/>
            <feGaussianBlur stdDeviation="3" result="blur-2"/>
            <feFlood flood-opacity="0.161"/>
            <feComposite operator="in" in2="blur-2"/>
            <feComposite in="SourceGraphic"/>
        </filter>
        <filter id="Path_3993" x="185.226" y="0" width="89.845" height="89.845" filterUnits="userSpaceOnUse">
            <feOffset dy="3" input="SourceAlpha"/>
            <feGaussianBlur stdDeviation="3" result="blur-3"/>
            <feFlood flood-opacity="0.161"/>
            <feComposite operator="in" in2="blur-3"/>
            <feComposite in="SourceGraphic"/>
        </filter>
        <filter id="Rectangle_1496" x="277" y="0.394" width="89" height="88" filterUnits="userSpaceOnUse">
            <feOffset dy="3" input="SourceAlpha"/>
            <feGaussianBlur stdDeviation="3" result="blur-4"/>
            <feFlood flood-opacity="0.161"/>
            <feComposite operator="in" in2="blur-4"/>
            <feComposite in="SourceGraphic"/>
        </filter>
    </defs>
    <g id="Group_4155" data-name="Group 4155" transform="translate(-24 -212)">
        <g id="Group_4152" data-name="Group 4152" transform="translate(125.052 218)">
            <g transform="matrix(1, 0, 0, 1, -101.05, -6)" filter="url(#Rectangle_1493)">
                <rect id="Rectangle_1493-2" data-name="Rectangle 1493" width="72" height="71" rx="5" transform="translate(101 6.39)" fill="#fff"/>
            </g>
            <g id="_001-fruits" data-name="001-fruits" transform="translate(11.276 11.378)">
                <path id="Path_710" data-name="Path 710" d="M286.767,30.768s0-5.076-3.384-6.768C280,25.692,280,30.768,280,30.768v7.614h6.768Z" transform="translate(-252.93 -24)" fill="#35a872"/>
                <path id="Path_711" data-name="Path 711" d="M336,120.459S337,112,347,112c0,0-5,4.23-5,8.459Z" transform="translate(-303.008 -102.695)" fill="#248256"/>
                <path id="Path_712" data-name="Path 712" d="M195,120.459S194,112,184,112c0,0,5,4.23,5,8.459Z" transform="translate(-167.081 -102.695)" fill="#248256"/>
                <path id="Path_713" data-name="Path 713" d="M304,80.459S305,72,315,72c0,0-5,4.23-5,8.459Z" transform="translate(-274.392 -66.924)" fill="#319c6a"/>
                <path id="Path_714" data-name="Path 714" d="M227,80.459S226,72,216,72c0,0,5,4.23,5,8.459Z" transform="translate(-195.697 -66.924)" fill="#2e9163"/>
                <rect id="Rectangle_1461" data-name="Rectangle 1461" width="27.096" height="32.114" rx="13.548" transform="translate(16.504 12.49)" fill="#f7b030"/>
                <g id="Group_5" data-name="Group 5" transform="translate(16.919 12.691)">
                    <path id="Path_715" data-name="Path 715" d="M321.708,278.736l-4.786,4.641-4.8-4.661,4.786-4.646Z" transform="translate(-298.572 -260.318)" fill="#e09f2c"/>
                    <path id="Path_716" data-name="Path 716" d="M231.038,278.7l-4.8,4.661-4.787-4.642,4.8-4.667Z" transform="translate(-217.49 -260.3)" fill="#e09f2c"/>
                    <path id="Path_717" data-name="Path 717" d="M250.786,144.02l-4.562,4.434L243.8,146.1A13.454,13.454,0,0,1,250.786,144.02Z" transform="translate(-237.476 -144.02)" fill="#e09f2c"/>
                    <path id="Path_718" data-name="Path 718" d="M231.027,190.613l-4.785,4.653-4.8-4.661,4.789-4.655Z" transform="translate(-217.481 -181.516)" fill="#e09f2c"/>
                    <path id="Path_719" data-name="Path 719" d="M321.692,190.587l-4.8,4.663L312.1,190.6l4.8-4.665Z" transform="translate(-298.554 -181.498)" fill="#e09f2c"/>
                    <path id="Path_720" data-name="Path 720" d="M321.352,146.105l-2.413,2.346-4.559-4.432A13.457,13.457,0,0,1,321.352,146.105Z" transform="translate(-300.593 -144.02)" fill="#e09f2c"/>
                    <path id="Path_721" data-name="Path 721" d="M188.075,211.62l-3.945,3.835a13.454,13.454,0,0,1,1.71-6.005Z" transform="translate(-184.116 -202.531)" fill="#e09f2c"/>
                    <path id="Path_722" data-name="Path 722" d="M406.728,215.571l-3.918-3.808,2.217-2.153A13.444,13.444,0,0,1,406.728,215.571Z" transform="translate(-379.672 -202.674)" fill="#e09f2c"/>
                    <path id="Path_723" data-name="Path 723" d="M406.725,282.12v4.006a13.522,13.522,0,0,1-.394,3.253l-3.54-3.443Z" transform="translate(-379.654 -267.517)" fill="#e09f2c"/>
                    <path id="Path_724" data-name="Path 724" d="M187.96,285.72l-3.561,3.463a13.563,13.563,0,0,1-.4-3.272V281.88Z" transform="translate(-184 -267.302)" fill="#e09f2c"/>
                </g>
                <path id="Path_725" data-name="Path 725" d="M196.118,322.832l-5.022,4.876a13.522,13.522,0,0,1-3.327-6.055l3.561-3.463Z" transform="translate(-170.452 -287.081)" fill="#f7b030"/>
                <path id="Path_726" data-name="Path 726" d="M238.862,366.952a13.537,13.537,0,0,1-19.632.014l5.022-4.876,4.8,4.656,4.8-4.656Z" transform="translate(-198.586 -326.339)" fill="#e09f2c"/>
                <path id="Path_727" data-name="Path 727" d="M282.851,409.927a.2.2,0,0,0-.032.049,13.6,13.6,0,0,1-7.82,0v-.046l3.925-3.807Z" transform="translate(-248.458 -365.713)" fill="#f7b030"/>
                <path id="Path_728" data-name="Path 728" d="M158.913,328c0,8.176-8.711,16.919-19.457,16.919S120,336.176,120,328Z" transform="translate(-109.849 -295.854)" fill="#35a872"/>
                <path id="Path_729" data-name="Path 729" d="M184.406,328c-.551,6.694-7.52,13.535-16.038,13.535S152.881,334.693,152.33,328Z" transform="translate(-138.76 -295.854)" fill="#d13330"/>
                <path id="Path_730" data-name="Path 730" d="M401.692,345.692a.846.846,0,1,1-1.692,0c0-.467.379-1.692.846-1.692S401.692,345.225,401.692,345.692Z" transform="translate(-360.241 -310.162)" fill="#5e3725"/>
                <path id="Path_731" data-name="Path 731" d="M361.692,385.692a.846.846,0,0,1-1.692,0c0-.467.379-1.692.846-1.692S361.692,385.225,361.692,385.692Z" transform="translate(-324.47 -345.932)" fill="#5e3725"/>
                <path id="Path_732" data-name="Path 732" d="M321.692,361.692a.846.846,0,0,1-1.692,0c0-.467.379-1.692.846-1.692S321.692,361.225,321.692,361.692Z" transform="translate(-288.7 -324.47)" fill="#5e3725"/>
                <path id="Path_733" data-name="Path 733" d="M273.692,361.692a.846.846,0,0,1-1.692,0c0-.467.379-1.692.846-1.692S273.692,361.225,273.692,361.692Z" transform="translate(-245.776 -324.47)" fill="#5e3725"/>
                <path id="Path_734" data-name="Path 734" d="M297.692,409.692a.846.846,0,1,1-1.692,0c0-.467.379-1.692.846-1.692S297.692,409.225,297.692,409.692Z" transform="translate(-267.238 -367.395)" fill="#5e3725"/>
                <path id="Path_735" data-name="Path 735" d="M232,385.692a.846.846,0,0,0,1.692,0c0-.467-.379-1.692-.846-1.692S232,385.225,232,385.692Z" transform="translate(-210.005 -345.932)" fill="#5e3725"/>
                <path id="Path_736" data-name="Path 736" d="M40.91,280a7.346,7.346,0,0,0-3.157,1,3.145,3.145,0,0,1-3.819,0,7.347,7.347,0,0,0-3.157-1c-4.412,0-7.394,3.973-6.668,8.847l.529,3.55a18.025,18.025,0,0,0,2.071,6.126,6.3,6.3,0,0,0,7.191,3.25l1.415-.506a1.563,1.563,0,0,1,1.057,0l1.415.506a6.3,6.3,0,0,0,7.191-3.25,18.025,18.025,0,0,0,2.071-6.126l.529-3.55C48.3,283.973,45.322,280,40.91,280Z" transform="translate(-24 -252.93)" fill="#eb423f"/>
                <path id="Path_737" data-name="Path 737" d="M128.846,235.842A.846.846,0,0,1,128,235c0-.079,0-1.969.215-4.2.294-3.088.839-5.246,1.619-6.417a.846.846,0,1,1,1.408.939c-1.27,1.905-1.55,7.635-1.55,9.682A.846.846,0,0,1,128.846,235.842Z" transform="translate(-117.003 -202.85)" fill="#5e3725"/>
                <path id="Path_738" data-name="Path 738" d="M110.52,312.247a.846.846,0,0,0-1.2,0,2.969,2.969,0,0,1-1.94.6,2.93,2.93,0,0,1-1.949-.608l.009.009a.846.846,0,1,0-1.2,1.2,5.043,5.043,0,0,0,6.272,0A.846.846,0,0,0,110.52,312.247Z" transform="translate(-95.541 -281.546)" fill="#c7312e"/>
            </g>
            <text id="Fruits" transform="translate(14.949 94.394)" fill="#707070" font-size="13" font-family="SegoeUI-Light, Segoe UI" font-weight="300" letter-spacing="0.025em"><tspan x="0" y="0">Fruits</tspan></text>
        </g>
        <g id="Group_4151" data-name="Group 4151" transform="translate(33 218)">
            <g transform="matrix(1, 0, 0, 1, -9, -6)" filter="url(#Rectangle_1495)">
                <rect id="Rectangle_1495-2" data-name="Rectangle 1495" width="72" height="71" rx="5" transform="translate(9 6.39)" fill="#fff"/>
            </g>
            <text id="All" transform="translate(33 92.394)" fill="#48b749" font-size="10" font-family="SegoeUI, Segoe UI" letter-spacing="0.025em"><tspan x="-5.897" y="0">All</tspan></text>
            <g id="market" transform="translate(13.315 11.788)">
                <path id="Path_896" data-name="Path 896" d="M4.321,20.4A5.864,5.864,0,0,0,1.9,28.329L12.349,47.977A5.864,5.864,0,1,0,22.7,42.469L12.252,22.822A5.864,5.864,0,0,0,4.321,20.4Zm0,0" transform="translate(-1.099 -17.892)" fill="#eab875"/>
                <path id="Path_897" data-name="Path 897" d="M48.918,42.468,38.467,22.821A5.864,5.864,0,0,0,30.536,20.4c-.154.082-.3.171-.446.265,2.339-.947,5.257.348,6.7,3.053L47.236,43.363c1.439,2.705.881,5.848-1.21,7.259.158-.067.315-.14.469-.222A5.864,5.864,0,0,0,48.918,42.468Zm0,0" transform="translate(-27.314 -17.891)" fill="#c68d4e"/>
                <path id="Path_898" data-name="Path 898" d="M61.734,187.48c-.469-.881-2.62-.652-4.806.51-.238.127-.465.259-.683.4l1.67,3.14q.352-.156.709-.345c2.186-1.163,3.578-2.819,3.109-3.7Zm0,0" transform="translate(-51.056 -169.694)" fill="#fff7af"/>
                <path id="Path_899" data-name="Path 899" d="M97.762,255.21c-.469-.881-2.62-.652-4.806.51-.238.126-.465.259-.683.4l1.67,3.14q.352-.156.709-.345C96.839,257.747,98.231,256.091,97.762,255.21Zm0,0" transform="translate(-83.759 -231.174)" fill="#fff7af"/>
                <path id="Path_900" data-name="Path 900" d="M20.9,120.258q-.357.19-.683.4l1.67,3.14q.352-.156.709-.345c2.186-1.162,3.578-2.819,3.11-3.7s-2.62-.653-4.806.51Zm0,0" transform="translate(-18.353 -108.212)" fill="#fff7af"/>
                <path id="Path_901" data-name="Path 901" d="M246.5,1.774V5.741a.213.213,0,0,0,.213.213h5.832a.213.213,0,0,0,.213-.213V1.774A1.774,1.774,0,0,0,250.987,0h-2.709A1.774,1.774,0,0,0,246.5,1.774Zm0,0" transform="translate(-223.758)" fill="#ed5176"/>
                <path id="Path_902" data-name="Path 902" d="M279.765,0h-1.557a1.637,1.637,0,0,1,1.45,1.774V5.741a.2.2,0,0,1-.174.213h1.843a.212.212,0,0,0,.212-.213V1.774A1.774,1.774,0,0,0,279.765,0Zm0,0" transform="translate(-252.536)" fill="#ba365f"/>
                <path id="Path_903" data-name="Path 903" d="M212.44,67.03V64.523h-5.225V67.03a1.852,1.852,0,0,1-.845,1.556,9.233,9.233,0,0,0-2.65,2.263c-1.71,3.215-.85,14.565-.85,14.565h13.917s.86-11.351-.85-14.565a9.233,9.233,0,0,0-2.65-2.263,1.852,1.852,0,0,1-.845-1.556Zm0,0" transform="translate(-183.954 -58.57)" fill="#804c68"/>
                <path id="Path_904" data-name="Path 904" d="M294.634,70.849a9.24,9.24,0,0,0-2.65-2.263,1.851,1.851,0,0,1-.845-1.556V64.523h-1.787V67.03a1.985,1.985,0,0,0,.691,1.556,8.224,8.224,0,0,1,2.166,2.263c1.4,3.215.695,14.565.695,14.565h2.581S296.345,74.064,294.634,70.849Zm0,0" transform="translate(-262.653 -58.57)" fill="#60364e"/>
                <path id="Path_905" data-name="Path 905" d="M282.747,178.316h-8.712l-2.617,3.289v15.434h13.946V181.605Zm0,0" transform="translate(-246.373 -161.862)" fill="#e9e9ea"/>
                <path id="Path_906" data-name="Path 906" d="M377.109,178.316h-1.738l2.216,3.289v15.434h2.139V181.605Zm0,0" transform="translate(-340.735 -161.862)" fill="#c5c4cc"/>
                <path id="Path_907" data-name="Path 907" d="M300.622,138.344h7.03a.841.841,0,0,1,.841.841v2.847h-8.713v-2.847A.841.841,0,0,1,300.622,138.344Zm0,0" transform="translate(-272.12 -125.579)" fill="#c8e7f7"/>
                <path id="Path_908" data-name="Path 908" d="M368.655,138.344h-1.67a.774.774,0,0,1,.774.774v2.914H369.5v-2.847A.841.841,0,0,0,368.655,138.344Zm0,0" transform="translate(-333.122 -125.579)" fill="#8cbcd6"/>
                <path id="Path_909" data-name="Path 909" d="M189.816,140.413l.005,0,4.253-3.426a2.009,2.009,0,1,0-3.042-2.482l-2.5,4.855,0,.005h0a.85.85,0,0,0,1.289,1.052Zm0,0" transform="translate(-171.044 -121.095)" fill="#7fab38"/>
                <path id="Path_910" data-name="Path 910" d="M124.1,140.413l-.005,0-4.254-3.426a2.045,2.045,0,0,1-.3-.3,2.009,2.009,0,1,1,3.346-2.182l2.5,4.855,0,.005h0a.85.85,0,0,1-1.289,1.052Zm0,0" transform="translate(-108.096 -121.095)" fill="#7fab38"/>
                <path id="Path_911" data-name="Path 911" d="M159.319,84.939l0-.009c.515-2.439.518-2.45,1.737-8.219a3.089,3.089,0,1,0-6.04,0l1.738,8.219,0,.009a0,0,0,0,1,0,0h0a1.308,1.308,0,0,0,2.559,0h0Zm0,0" transform="translate(-140.652 -66.236)" fill="#aed559"/>
                <path id="Path_912" data-name="Path 912" d="M141.568,194.588a5.289,5.289,0,1,0-10.339,0l3.062,14.326a2.15,2.15,0,0,0,4.215,0Zm0,0" transform="translate(-119.012 -170.816)" fill="#ffcd34"/>
                <path id="Path_913" data-name="Path 913" d="M182.214,188.18a5.369,5.369,0,0,0-.632.039c2.063.313,3.663,2.543,3.663,5.25a6.685,6.685,0,0,1-.094,1.119l-2.408,14.326a2.041,2.041,0,0,1-1.161,1.631,2.145,2.145,0,0,0,2.739-1.631l3.062-14.326a5.289,5.289,0,0,0-5.169-6.408Zm0,0" transform="translate(-164.827 -170.816)" fill="#e69012"/>
                <path id="Path_914" data-name="Path 914" d="M51.3,304.6l.394,3.367.294,2.515,1.293,11.049a2.5,2.5,0,0,0,2.479,2.206H83.332a2.5,2.5,0,0,0,2.479-2.206L87.791,304.6Zm0,0" transform="translate(-46.567 -276.498)" fill="#aed559"/>
                <path id="Path_915" data-name="Path 915" d="M87.54,306.754l.251-2.149H51.3l.251,2.149Zm0,0" transform="translate(-46.567 -276.498)" fill="#7fab38"/>
                <path id="Path_916" data-name="Path 916" d="M377.143,304.6l-1.981,16.931a2.5,2.5,0,0,1-2.479,2.206h2.376a2.5,2.5,0,0,0,2.479-2.206l1.981-16.931Zm0,0" transform="translate(-338.295 -276.498)" fill="#7fab38"/>
                <path id="Path_917" data-name="Path 917" d="M23.285,252.124v2.327a1.319,1.319,0,0,0,1.318,1.318H63.627a1.319,1.319,0,0,0,1.318-1.318v-2.327a1.319,1.319,0,0,0-1.318-1.319H24.6A1.319,1.319,0,0,0,23.285,252.124Zm0,0" transform="translate(-21.137 -227.663)" fill="#90b6e1"/>
                <path id="Path_918" data-name="Path 918" d="M436.738,250.8h-2.414a1.319,1.319,0,0,1,1.318,1.319v2.327a1.319,1.319,0,0,1-1.318,1.318h2.414a1.319,1.319,0,0,0,1.319-1.318v-2.327A1.319,1.319,0,0,0,436.738,250.8Zm0,0" transform="translate(-394.248 -227.663)" fill="#5692d8"/>
                <path id="Path_919" data-name="Path 919" d="M377.4,287.629a1.344,1.344,0,0,1-1.34-.639L366.6,271.223a1.343,1.343,0,1,1,2.3-1.382l9.462,15.767a1.343,1.343,0,0,1-.963,2.021Zm0,0" transform="translate(-332.598 -244.35)" fill="#575b7a"/>
                <path id="Path_920" data-name="Path 920" d="M1.155,287.629a1.344,1.344,0,0,0,1.34-.639l9.462-15.767a1.343,1.343,0,1,0-2.3-1.382L.192,285.607a1.343,1.343,0,0,0,.963,2.021Zm0,0" transform="translate(-0.001 -244.35)" fill="#575b7a"/>
                <g id="Group_25" data-name="Group 25" transform="translate(12.521 31.494)">
                    <path id="Path_921" data-name="Path 921" d="M138.074,344.87a1.191,1.191,0,1,1-2.382,0v-2.359a1.191,1.191,0,1,1,2.382,0Zm0,0" transform="translate(-135.691 -341.32)" fill="#7fab38"/>
                    <path id="Path_922" data-name="Path 922" d="M188.289,428.393a1.191,1.191,0,0,1-2.383,0v-2.359a1.191,1.191,0,0,1,2.383,0Zm0,0" transform="translate(-181.273 -417.136)" fill="#7fab38"/>
                    <path id="Path_923" data-name="Path 923" d="M238.507,344.87a1.191,1.191,0,1,1-2.382,0v-2.359a1.191,1.191,0,1,1,2.382,0Zm0,0" transform="translate(-226.857 -341.32)" fill="#7fab38"/>
                    <path id="Path_924" data-name="Path 924" d="M288.722,428.393a1.191,1.191,0,0,1-2.383,0v-2.359a1.191,1.191,0,0,1,2.383,0Zm0,0" transform="translate(-272.439 -417.136)" fill="#7fab38"/>
                    <path id="Path_925" data-name="Path 925" d="M338.94,344.87a1.191,1.191,0,1,1-2.382,0v-2.359a1.191,1.191,0,1,1,2.382,0Zm0,0" transform="translate(-318.024 -341.32)" fill="#7fab38"/>
                </g>
                <path id="Path_926" data-name="Path 926" d="M368.251,207.849h-3.524a.692.692,0,1,1,0-1.384h3.524a.692.692,0,1,1,0,1.384Zm0,0" transform="translate(-330.445 -187.414)" fill="#c5c4cc"/>
            </g>
        </g>
        <g id="Group_4153" data-name="Group 4153" transform="translate(215.981 218)">
            <g transform="matrix(1, 0, 0, 1, -191.98, -6)" filter="url(#Path_3993)">
                <path id="Path_3993-2" data-name="Path 3993" d="M5.613,0H66.232a5.613,5.613,0,0,1,5.613,5.613V66.232a5.613,5.613,0,0,1-5.613,5.613H5.613A5.613,5.613,0,0,1,0,66.232V5.613A5.613,5.613,0,0,1,5.613,0Z" transform="translate(194.23 6)" fill="#fff"/>
            </g>
            <g id="_003-vegetables" data-name="003-vegetables" transform="translate(14.801 12.316)">
                <path id="Path_739" data-name="Path 739" d="M8.61,10.1H21.447L19.034,22.969H11.022Z" transform="translate(-8.61 -9.151)" fill="#88b337"/>
                <g id="Group_7" data-name="Group 7" transform="translate(0)">
                    <path id="Path_740" data-name="Path 740" d="M11.237,21.127,8.61,7.259l1.579-.3,2.628,13.868Z" transform="translate(-8.61 -6.307)" fill="#6b962a"/>
                    <path id="Path_741" data-name="Path 741" d="M102.3,21.177l-1.58-.3L103.3,6.963l1.579.3Z" transform="translate(-92.04 -6.307)" fill="#6b962a"/>
                    <rect id="Rectangle_1462" data-name="Rectangle 1462" width="1.608" height="11.257" transform="translate(5.614)" fill="#6b962a"/>
                </g>
                <g id="Group_8" data-name="Group 8" transform="translate(19.284 0.804)">
                    <rect id="Rectangle_1463" data-name="Rectangle 1463" width="8.041" height="11.257" transform="translate(0 35.38)" fill="#88b337"/>
                    <path id="Path_742" data-name="Path 742" d="M315.657,20.594V17.378A8.845,8.845,0,0,1,324.5,8.533h0a8.845,8.845,0,0,1,8.845,8.845v20.1a9.649,9.649,0,0,1-2.826,6.823l-6.019,6.02-6.019-6.02,0,0a9.568,9.568,0,0,1-2.822-6.771V20.594Z" transform="translate(-306.008 -8.533)" fill="#88b337"/>
                </g>
                <path id="Path_743" data-name="Path 743" d="M386.335,8.533a8.806,8.806,0,0,0-2.412.342,8.846,8.846,0,0,1,6.433,8.5v20.1a9.649,9.649,0,0,1-2.826,6.823l-3.606,3.607,2.412,2.412,6.019-6.02a9.649,9.649,0,0,0,2.826-6.823v-20.1A8.845,8.845,0,0,0,386.335,8.533Z" transform="translate(-348.557 -7.729)" fill="#7ba825"/>
                <path id="Path_744" data-name="Path 744" d="M363.076,69.951l-1.137-1.137-3.452,3.452V67.3l4.589-4.589-1.137-1.137-3.452,3.452v-5.3h-1.608v5.3l-3.452-3.452-1.137,1.137,4.589,4.589v4.963l-3.216-3.216-1.137,1.137,4.353,4.353v27.81h1.608V89.013l4.589-4.589-1.137-1.137-3.452,3.452V81.776l4.589-4.589-1.137-1.137L358.487,79.5V74.54Z" transform="translate(-319.905 -54.104)" fill="#6b962a"/>
                <g id="Group_9" data-name="Group 9" transform="translate(19.284 41.813)">
                    <rect id="Rectangle_1464" data-name="Rectangle 1464" width="3.216" height="1.608" transform="translate(4.825 1.608)" fill="#638724"/>
                    <rect id="Rectangle_1465" data-name="Rectangle 1465" width="2.412" height="1.608" fill="#638724"/>
                </g>
                <path id="Path_745" data-name="Path 745" d="M21.535,145.067H14.1a2.413,2.413,0,0,0-2.395,2.7l3.413,28.679a2.717,2.717,0,0,0,5.4,0l3.431-28.964A2.412,2.412,0,0,0,21.535,145.067Z" transform="translate(-11.401 -131.397)" fill="#f46b27"/>
                <path id="Path_746" data-name="Path 746" d="M62.577,145.067H58.86a2.412,2.412,0,0,1,2.412,2.412l-3.431,28.964A2.7,2.7,0,0,1,57,178.1a2.71,2.71,0,0,0,4.556-1.652l3.431-28.964A2.412,2.412,0,0,0,62.577,145.067Z" transform="translate(-52.442 -131.397)" fill="#e85925"/>
                <g id="Group_10" data-name="Group 10" transform="translate(0.464 17.69)">
                    <path id="Path_747" data-name="Path 747" d="M17.88,187.733H13.534l.191,1.608H17.88Z" transform="translate(-13.534 -187.733)" fill="#de4c3c"/>
                    <path id="Path_748" data-name="Path 748" d="M22.6,238.933H19.635l.191,1.608H22.6Z" transform="translate(-19.06 -234.108)" fill="#de4c3c"/>
                    <path id="Path_749" data-name="Path 749" d="M35.248,341.333H31.821l.191,1.608h3.236Z" transform="translate(-30.098 -326.859)" fill="#de4c3c"/>
                    <path id="Path_750" data-name="Path 750" d="M76.723,392.533v1.608h3.462l.191-1.608Z" transform="translate(-70.769 -373.235)" fill="#de4c3c"/>
                    <path id="Path_751" data-name="Path 751" d="M46.293,443.733H44.015l.191,1.608h2.087Z" transform="translate(-41.143 -419.61)" fill="#de4c3c"/>
                    <rect id="Rectangle_1466" data-name="Rectangle 1466" width="2.412" height="1.608" transform="translate(5.954)" fill="#de4c3c"/>
                </g>
                <path id="Path_752" data-name="Path 752" d="M213.257,392.533v3.047a8.794,8.794,0,0,0,8.041,0v-3.047Z" transform="translate(-193.973 -355.545)" fill="#7ba825"/>
                <g id="Group_11" data-name="Group 11" transform="translate(6.323 12.858)">
                    <path id="Path_753" data-name="Path 753" d="M104.49,145.63A7.227,7.227,0,0,0,92.7,138.317,7.223,7.223,0,0,0,80.9,145.635a7.237,7.237,0,1,0,4.1,13.88c.181-.053.359-.114.535-.181a8.826,8.826,0,0,0,14.319,0,7.237,7.237,0,1,0,5.121-13.537Q104.739,145.7,104.49,145.63Z" transform="translate(-75.717 -136.457)" fill="#6b962a"/>
                    <path id="Path_754" data-name="Path 754" d="M128,379.238c-.027.01-.055.017-.08.027.05.018.1.038.149.054A.55.55,0,0,1,128,379.238Z" transform="translate(-123.004 -356.361)" fill="#6b962a"/>
                </g>
                <path id="Path_755" data-name="Path 755" d="M290.9,145.692a7.217,7.217,0,0,0-9.381-8.745,7.2,7.2,0,0,1,4.556,8.745,7.237,7.237,0,0,1,.273,13.728,7.237,7.237,0,0,0,5.079-13.554C291.257,145.8,291.081,145.743,290.9,145.692Z" transform="translate(-255.806 -123.659)" fill="#648f24"/>
                <g id="Group_12" data-name="Group 12" transform="translate(9.635 16.082)">
                    <rect id="Rectangle_1467" data-name="Rectangle 1467" width="1.608" height="1.608" transform="translate(12.865 19.298)" fill="#638724"/>
                    <rect id="Rectangle_1468" data-name="Rectangle 1468" width="1.608" height="1.608" transform="translate(12.865 12.866)" fill="#638724"/>
                    <rect id="Rectangle_1469" data-name="Rectangle 1469" width="1.608" height="1.608" transform="translate(9.649 14.474)" fill="#638724"/>
                    <rect id="Rectangle_1470" data-name="Rectangle 1470" width="1.608" height="1.608" transform="translate(9.649 17.69)" fill="#638724"/>
                    <rect id="Rectangle_1471" data-name="Rectangle 1471" width="1.608" height="1.608" transform="translate(16.082 17.69)" fill="#638724"/>
                    <rect id="Rectangle_1472" data-name="Rectangle 1472" width="1.608" height="1.608" transform="translate(8.041 6.433)" fill="#638724"/>
                    <rect id="Rectangle_1473" data-name="Rectangle 1473" width="1.608" height="1.608" transform="translate(8.041)" fill="#638724"/>
                    <rect id="Rectangle_1474" data-name="Rectangle 1474" width="1.608" height="1.608" transform="translate(4.825 1.608)" fill="#638724"/>
                    <rect id="Rectangle_1475" data-name="Rectangle 1475" width="1.608" height="1.608" transform="translate(17.69 6.433)" fill="#638724"/>
                    <rect id="Rectangle_1476" data-name="Rectangle 1476" width="1.608" height="1.608" transform="translate(14.474 1.608)" fill="#638724"/>
                    <rect id="Rectangle_1477" data-name="Rectangle 1477" width="1.608" height="1.608" transform="translate(20.906 1.608)" fill="#638724"/>
                    <rect id="Rectangle_1478" data-name="Rectangle 1478" width="1.608" height="1.608" transform="translate(14.474 4.825)" fill="#638724"/>
                    <rect id="Rectangle_1479" data-name="Rectangle 1479" width="1.608" height="1.608" transform="translate(17.69 3.216)" fill="#638724"/>
                    <rect id="Rectangle_1480" data-name="Rectangle 1480" width="1.608" height="1.608" transform="translate(3.216 8.845)" fill="#638724"/>
                    <rect id="Rectangle_1481" data-name="Rectangle 1481" width="1.608" height="1.608" transform="translate(0 10.453)" fill="#638724"/>
                    <rect id="Rectangle_1482" data-name="Rectangle 1482" width="1.608" height="1.608" transform="translate(0 13.67)" fill="#638724"/>
                    <rect id="Rectangle_1483" data-name="Rectangle 1483" width="1.608" height="1.608" transform="translate(6.433 13.67)" fill="#638724"/>
                    <rect id="Rectangle_1484" data-name="Rectangle 1484" width="1.608" height="1.608" transform="translate(3.216 12.061)" fill="#638724"/>
                    <rect id="Rectangle_1485" data-name="Rectangle 1485" width="1.608" height="1.608" transform="translate(22.515 15.278)" fill="#638724"/>
                    <rect id="Rectangle_1486" data-name="Rectangle 1486" width="1.608" height="1.608" transform="translate(22.515 8.845)" fill="#638724"/>
                    <rect id="Rectangle_1487" data-name="Rectangle 1487" width="1.608" height="1.608" transform="translate(25.731 10.453)" fill="#638724"/>
                    <rect id="Rectangle_1488" data-name="Rectangle 1488" width="1.608" height="1.608" transform="translate(19.298 13.67)" fill="#638724"/>
                    <rect id="Rectangle_1489" data-name="Rectangle 1489" width="1.608" height="1.608" transform="translate(25.731 13.67)" fill="#638724"/>
                </g>
            </g>
            <text id="Vegetables" transform="translate(0.019 94.394)" fill="#707070" font-size="13" font-family="SegoeUI-Light, Segoe UI" font-weight="300"><tspan x="0" y="0">Vegetables</tspan></text>
        </g>
        <g id="Group_4154" data-name="Group 4154" transform="translate(310.278 218)">
            <g transform="matrix(1, 0, 0, 1, -286.28, -6)" filter="url(#Rectangle_1496)">
                <rect id="Rectangle_1496-2" data-name="Rectangle 1496" width="71" height="70" rx="5" transform="translate(286 6.39)" fill="#fff"/>
            </g>
            <g id="_006-fish" data-name="006-fish" transform="translate(11.06 11.261)">
                <path id="Path_797" data-name="Path 797" d="M16.39,331.293c-.315.008-.6.012-.857.014,0-.255.006-.543.014-.857a1.464,1.464,0,0,0-2.1-1.355c-.044.021-4.481,2.089-11.635.658a1.462,1.462,0,0,0-1.748,1.433A10.072,10.072,0,0,0,2.84,338.61c1.853,1.721,3.667,3.534,5.389,5.389a10.072,10.072,0,0,0,7.426,2.771,1.462,1.462,0,0,0,1.433-1.748c-1.431-7.154.636-11.591.658-11.634A1.462,1.462,0,0,0,16.39,331.293Z" transform="translate(-0.069 -296.905)" fill="#4880fa"/>
                <path id="Path_798" data-name="Path 798" d="M68.85,355.1c-.021.043-2.089,4.48-.658,11.634a1.462,1.462,0,0,1-1.433,1.748,10.072,10.072,0,0,1-7.426-2.771q-1.29-1.39-2.645-2.744l9.949-9.949c.255,0,.543-.006.857-.014A1.462,1.462,0,0,1,68.85,355.1Z" transform="translate(-51.174 -318.616)" fill="#365fde"/>
                <path id="Path_799" data-name="Path 799" d="M218.464,310.338a20.512,20.512,0,0,1-2.682-8.23,1.461,1.461,0,0,1,1.227-1.544,29.451,29.451,0,0,0,12.683-4.774,1.462,1.462,0,0,1,2.316,1.185,16.369,16.369,0,0,1-1.3,6.2c-2.406,5.787-10.319,7.742-10.655,7.822a1.461,1.461,0,0,1-1.588-.66Z" transform="translate(-194.766 -266.725)" fill="#f2d131"/>
                <path id="Path_800" data-name="Path 800" d="M82.713,76.927c-1.493-1.99-6.416-1.938-8.023-1.762a1.463,1.463,0,0,1-1.621-1.452,43.854,43.854,0,0,1,1.01-8.7c1.058-4.653,3.263-9.717,7.957-10.655,4.6-.92,7.345.41,8.836,1.687a7.228,7.228,0,0,1,2.207,3.241,1.461,1.461,0,0,1-.282,1.337c-7.579,9.1-5.874,11.761-7.559,15.973A1.462,1.462,0,0,1,82.713,76.927ZM90.274,60.1h0Z" transform="translate(-65.958 -48.785)" fill="#faf17d"/>
                <path id="Path_801" data-name="Path 801" d="M155.5,29.237c-4.33,4.33-10.474,6.521-16.521,7.487a46.964,46.964,0,0,1-8.758.573,1.463,1.463,0,0,1-1.378-1.378c0-.038-.052-.956-.011-2.453.215-8.022,2.395-17.149,8.071-22.827,9.261-9.261,24.281-12.929,27.8-9.2C168.413,5.31,164.711,20.022,155.5,29.237Z" transform="translate(-116.272 0)" fill="#93c5ec"/>
                <path id="Path_802" data-name="Path 802" d="M159.7,42.6c-4.33,4.33-10.474,6.521-16.521,7.487a46.964,46.964,0,0,1-8.758.573,1.456,1.456,0,0,1-.952-.427L168.9,14.8C172.615,18.669,168.913,33.382,159.7,42.6Z" transform="translate(-120.474 -13.359)" fill="#6aa6fb"/>
                <path id="Path_803" data-name="Path 803" d="M323.791,1.45c-1.647-1.75-5.25-1.561-7.625-1.2a36.559,36.559,0,0,0-11.086,3.791s.321,4.9,5.75,10.333,10.387,5.8,10.387,5.8a34.136,34.136,0,0,0,3.941-12.446c.169-2.044.067-4.779-1.367-6.271Z" transform="translate(-275.367 -0.008)" fill="#6aa6fb"/>
                <path id="Path_804" data-name="Path 804" d="M378.627,21.071a34.13,34.13,0,0,1-3.941,12.446s-4.946-.365-10.367-5.777L377.26,14.8C378.694,16.292,378.8,19.028,378.627,21.071Z" transform="translate(-328.837 -13.358)" fill="#4880fa"/>
                <path id="Path_805" data-name="Path 805" d="M394.521,67.825a1.461,1.461,0,1,1,1.13-2.387A1.463,1.463,0,0,1,394.521,67.825Z" transform="translate(-354.777 -58.581)" fill="#25429a"/>
            </g>
            <text id="Fish" transform="translate(19.722 95.394)" fill="#707070" font-size="13" font-family="SegoeUI-Light, Segoe UI" font-weight="300"><tspan x="0" y="0">Fish</tspan></text>
        </g>
    </g>
</svg>
