<svg xmlns="http://www.w3.org/2000/svg" xmlns:xlink="http://www.w3.org/1999/xlink" id="body_1" width="291" height="92">

    <g transform="matrix(1 0 0 1 0 0)">
        <text transform="matrix(1 0 0 1 0 37)" x="0" y="0" style="fill:#707070;font-family:ABeeZee;" font-size="34">

        </text>
        <text transform="matrix(1 0 0 1 0 37)" x="0" y="0" style="fill:#707070;font-family:ABeeZee;" font-size="34">

        </text>
        <text transform="matrix(1 0 0 1 0 37)" x="0" y="0" style="fill:#707070;font-family:ABeeZee;" font-size="34">
            Welcome to
        </text>
        <text transform="matrix(1 0 0 1 0 37)" x="192.338" y="0" style="fill:#707070;font-family:ABeeZee;" font-size="34">

        </text>
        <text transform="matrix(1 0 0 1 0 37)" x="202.538" y="0" style="fill:#48B749;font-family:ABeeZee;font-weight:bold;" font-size="34">

        </text>
        <text transform="matrix(1 0 0 1 0 37)" x="202.538" y="0" style="fill:#48B749;font-family:ABeeZee;font-weight:bold;" font-size="34">

        </text>
        <text transform="matrix(1 0 0 1 0 37)" x="0" y="46" style="fill:#48B749;font-family:ABeeZee;font-weight:bold;" font-size="34">

        </text>
        <text transform="matrix(1 0 0 1 0 37)" x="0" y="46" style="fill:#48B749;font-family:ABeeZee;font-weight:bold;" font-size="34">
            ÜBazar
        </text>
        <text transform="matrix(1 0 0 1 0 37)" x="115.770004" y="46" style="fill:#48B749;font-family:ABeeZee;font-weight:bold;" font-size="34">

        </text>
        <text transform="matrix(1 0 0 1 0 37)" x="125.97" y="46" style="fill:#707070;font-family:ABeeZee;font-weight:bold;" font-size="34">

        </text>
        <text transform="matrix(1 0 0 1 0 37)" x="125.97" y="46" style="fill:#707070;font-family:ABeeZee;" font-size="34">
            Application
        </text>
        <text transform="matrix(1 0 0 1 0 37)" x="310.114" y="46" style="fill:#48B749;font-family:ABeeZee;font-weight:bold;" font-size="34">

        </text>
        <text transform="matrix(1 0 0 1 0 37)" x="320.31403" y="46" style="fill:#707070;font-family:ABeeZee;" font-size="34">

        </text>
    </g>
</svg>